{"title":"Shakira Ft. Pitbull - Rabiosa [English Version] 1080p [Sbyky]","uid":9240669,"size":87169241,"categoryP":"video","categoryS":"music_videos","magnet":"?xt=urn:btih:f690c745baa8b8b5e8ca2a1644bed3189f04b8a8&amp;dn=Shakira+Ft.+Pitbull+-+Rabiosa+%5BEnglish+Version%5D+1080p+%5BSbyky%5D&amp;tr=udp%3A%2F%2Ftracker.openbittorrent.com%3A80&amp;tr=udp%3A%2F%2Fopen.demonii.com%3A1337&amp;tr=udp%3A%2F%2Ftracker.coppersurfer.tk%3A6969&amp;tr=udp%3A%2F%2Fexodus.desync.com%3A6969","seeders":5,"leechers":1,"uploader":"Sbyky","files":1,"time":1385267017,"description":"\n\nGeneral\nComplete name                            : Shakira Ft. Pitbull - Rabiosa [English Version] 1080p [Sbyky].MP4\nFormat                                   : MPEG-4\nFormat profile                           : Base Media\nCodec ID                                 : isom\nFile size                                : 83.1 MiB\nDuration                                 : 2mn 50s\nOverall bit rate mode                    : Variable\nOverall bit rate                         : 4 091 Kbps\nEncoded date                             : UTC 2013-09-10 19:39:15\nTagged date                              : UTC 2013-09-10 19:39:15\n\nVideo\nID                                       : 1\nFormat                                   : AVC\nFormat/Info                              : Advanced Video Codec\nFormat profile                           : &lt;a class=&quot;__cf_email__&quot; href=&quot;/cdn-cgi/l/email-protection&quot; data-cfemail=&quot;3971505e5179750d1709&quot;&gt;[email&amp;#160;protected]&lt;/a&gt;&lt;script cf-hash='f9e31' type=&quot;text/javascript&quot;&gt;\n/* &lt;![CDATA[ */!function(){try{var t=&quot;currentScript&quot;in document?document.currentScript:function(){for(var t=document.getElementsByTagName(&quot;script&quot;),e=t.length;e--;)if(t[e].getAttribute(&quot;cf-hash&quot;))return t[e]}();if(t&amp;&amp;t.previousSibling){var e,r,n,i,c=t.previousSibling,a=c.getAttribute(&quot;data-cfemail&quot;);if(a){for(e=&quot;&quot;,r=parseInt(a.substr(0,2),16),n=2;a.length-n;n+=2)i=parseInt(a.substr(n,2),16)^r,e+=String.fromCharCode(i);e=document.createTextNode(e),c.parentNode.replaceChild(e,c)}}}catch(u){}}();/* ]]&gt; */&lt;/script&gt;\nFormat settings, CABAC                   : Yes\nFormat settings, ReFrames                : 2 frames\nCodec ID                                 : avc1\nCodec ID/Info                            : Advanced Video Coding\nDuration                                 : 2mn 50s\nBit rate                                 : 3 839 Kbps\nWidth                                    : 1 920 pixels\nHeight                                   : 1 080 pixels\nDisplay aspect ratio                     : 16:9\nFrame rate mode                          : Constant\nFrame rate                               : 25.000 fps\nColor space                              : YUV\nChroma subsampling                       : 4:2:0\nBit depth                                : 8 bits\nScan type                                : Progressive\nBits/(Pixel*Frame)                       : 0.074\nStream size                              : 77.9 MiB (94%)\nEncoded date                             : UTC 2013-09-10 19:39:15\nTagged date                              : UTC 2013-09-10 19:39:15\n\nAudio\nID                                       : 2\nFormat                                   : AAC\nFormat/Info                              : Advanced Audio Codec\nFormat profile                           : LC\nCodec ID                                 : 40\nDuration                                 : 2mn 50s\nBit rate mode                            : Variable\nBit rate                                 : 254 Kbps\nChannel(s)                               : 2 channels\nChannel positions                        : Front: L R\nSampling rate                            : 44.1 KHz\nCompression mode                         : Lossy\nDelay relative to video                  : 40ms\nStream size                              : 5.15 MiB (6%)\nEncoded date                             : UTC 2013-09-10 19:44:44\nTagged date                              : UTC 2013-09-10 19:44:44\n\nShared By Sbyky\n","torrent":{"xt":"urn:btih:f690c745baa8b8b5e8ca2a1644bed3189f04b8a8","amp;dn":"Shakira+Ft.+Pitbull+-+Rabiosa+%5BEnglish+Version%5D+1080p+%5BSbyky%5D","amp;tr":["udp%3A%2F%2Ftracker.openbittorrent.com%3A80","udp%3A%2F%2Fopen.demonii.com%3A1337","udp%3A%2F%2Ftracker.coppersurfer.tk%3A6969","udp%3A%2F%2Fexodus.desync.com%3A6969"],"infoHash":"f690c745baa8b8b5e8ca2a1644bed3189f04b8a8","infoHashBuffer":{"type":"Buffer","data":[246,144,199,69,186,168,184,181,232,202,42,22,68,190,211,24,159,4,184,168]},"announce":[],"urlList":[]}}